<svg width="512" height="512" viewBox="0 0 512 512" fill="none" xmlns="http://www.w3.org/2000/svg">
<circle cx="256" cy="256" r="256" fill="#F8F1DF"/>
<path fill-rule="evenodd" clip-rule="evenodd" d="M272.873 19.1321C271.463 19.7872 268.445 21.5615 266.165 23.0759C249.183 34.3533 238.674 50.5967 236.742 68.5534C236.202 73.5756 236.447 77.6715 237.969 89.0482L238.824 95.4421L238.291 99.7576C237.604 105.329 235.846 109.271 232.771 112.142C226.974 117.553 219.923 115.927 216.01 108.277L214.285 104.906L214.113 99.4401L213.941 93.974L214.746 90.8801C216.05 85.8692 215.021 85.535 211.012 89.6674C203.423 97.4911 197.016 108.889 194.481 119.078L193.135 124.489L193.138 130.887L193.141 137.286L194.187 141.469C196.509 150.755 200.263 157.331 207.173 164.213C212.808 169.825 220.407 174.693 226.257 176.441L228.369 177.072L228.939 176.503L229.508 175.935L225.801 172.114C219.363 165.478 214.603 157.37 212.801 149.969L211.948 146.468L212.168 141.385C212.363 136.884 213.137 133.581 213.992 133.602C214.152 133.606 214.803 134.96 215.44 136.61C218.864 145.486 226.202 153.33 234.514 156.999C238.989 158.974 239.573 158.247 237.352 153.464L236.01 150.575L235.996 146.391L235.982 142.208L237.281 139.442C238.079 137.744 240.247 134.892 242.894 132.059C248.379 126.189 251.598 121.315 253.178 116.489C255.829 108.387 256.079 102.864 254.275 92.1583C253.623 88.2844 252.945 84.0733 252.769 82.8C252.387 80.0364 253.269 73.047 254.306 70.6117L255.046 68.8728L256.401 72.8668C258.496 79.0427 260.659 82.4215 266.866 89.2175C270.884 93.6156 272.953 97.3611 273.75 101.676L274.352 104.938L273.743 108.069C273.409 109.791 272.136 113.168 270.916 115.574C268.381 120.568 267.07 125.863 267.55 129.165C268.834 137.993 276.212 142.968 285.014 140.943C288.232 140.203 293.07 137.65 295.843 135.23C297.183 134.06 298.554 133.102 298.89 133.102H299.499L299.2 136.977C298.608 144.645 295.058 152.862 289.508 159.413C286.957 162.424 286.718 162.878 287.447 163.328C288.368 163.895 293.817 162.562 297.278 160.921C299.289 159.968 301.164 159.188 301.445 159.188C302.439 159.188 301.325 163.771 299.569 166.905C298.604 168.627 296.718 171.351 295.378 172.958C294.039 174.564 292.942 176.11 292.942 176.392C292.942 177.907 299.398 176.186 305.957 172.924C319.73 166.073 329.638 154.069 333.438 139.63C335.319 132.485 335.13 115.978 333.145 113.964L332.474 113.282L331.748 115.686C329.369 123.569 326.413 129.172 322.373 133.458C319.732 136.259 316.161 138.747 314.025 139.273L312.669 139.607V138.335C312.669 137.635 313.23 135.574 313.916 133.756C321.364 114.008 319.413 93.1555 308.882 79.9641C305.908 76.2392 300.069 71.4912 296.502 69.898L294.389 68.9545L293.797 69.5461L293.204 70.1372L295.241 73.9344C302.131 86.7793 303.115 98.9154 298.145 109.743C295.455 115.604 288.782 121.782 285.142 121.782C283.625 121.782 283.744 120.791 286.021 114.448C287.096 111.451 288.344 107.059 288.792 104.686L289.608 100.372L289.333 95.4505C288.867 87.081 286.865 82.0721 279.474 70.7874C274.457 63.1256 273.244 60.7799 271.486 55.3378L270.134 51.1543L269.91 44.756L269.687 38.3576L270.954 33.4358C271.701 30.5359 273.217 26.5635 274.644 23.766L277.065 19.0179L276.521 18.475C275.806 17.7609 275.836 17.755 272.873 19.1321ZM258.293 145.618C255.914 146.465 255.237 147.047 254.274 149.072L253.489 150.723L253.428 177.719C253.394 192.566 253.228 206.204 253.058 208.024L252.749 211.335L249.05 208.86C226.278 193.626 199.398 187.718 177.821 193.205C164.68 196.546 153.118 204.691 145.914 215.681C139.247 225.853 134.904 238.535 134.265 249.702L134 254.331L134.862 255.927C135.336 256.805 136.431 257.903 137.296 258.368L138.869 259.214L142.794 258.977C144.952 258.846 150.269 258.155 154.609 257.44C172.53 254.488 187.186 253.432 204.172 253.871C242.541 254.861 256.348 254.737 256.791 253.401C257.09 252.501 223.164 240.734 210.337 237.289C197.304 233.789 184.8 231.813 171.993 231.229L164.719 230.897V229.896C164.719 228.007 166.861 224.483 169.857 221.446L172.856 218.405L177.048 216.35C182.469 213.691 187.457 212.686 195.049 212.723C201.847 212.755 208.465 213.711 216.353 215.802C222.25 217.364 223.585 217.551 223.323 216.779C222.998 215.818 217.176 211.85 212.57 209.451C206.582 206.331 203.682 205.199 197.268 203.474L192.09 202.082L196.204 202.044C203.92 201.975 214.878 204.895 224.879 209.684C234.738 214.406 243.127 220.629 252.838 230.423C255.176 232.782 257.279 234.491 257.843 234.491C258.378 234.491 260.558 233.091 262.687 231.38C280.341 217.188 294.301 210.502 309.776 208.826L315.019 208.258L320.323 208.854C329.581 209.893 336.618 212.702 342.773 217.814C346.022 220.512 348.602 223.944 347.886 224.617C347.639 224.849 342.777 225.146 337.081 225.278L326.724 225.517L320.806 226.565C306.659 229.071 294.656 233.038 280.173 239.996L273.075 243.407L273.61 243.941L274.146 244.476L282.188 243.623C292.893 242.487 318.2 242.04 327.568 242.821C340.181 243.872 352.573 245.882 369.017 249.543L372.843 250.395L374.757 249.822C375.863 249.491 377.057 248.679 377.583 247.9L378.494 246.55L378.444 243.304C378.275 232.433 371.759 218.057 362.915 209.038C354.945 200.912 345.938 196.136 333.778 193.59L328.697 192.526L320.806 192.517C303.796 192.497 288.27 197.48 272.616 207.985C269.7 209.941 268.043 210.782 267.818 210.419C267.63 210.114 267.561 196.524 267.667 180.22L267.858 150.575L266.961 148.852C266.39 147.754 265.267 146.728 263.864 146.022C261.338 144.751 260.831 144.714 258.293 145.618ZM321.053 254.964C320.104 255.071 317.218 255.395 314.642 255.684C306.862 256.556 295.997 258.901 279.38 263.293C260.18 268.368 255.063 269.543 244.735 271.252C240.328 271.981 236.721 272.747 236.721 272.953C236.721 273.459 239.322 274.158 246.091 275.471L251.763 276.571L265.078 276.544L278.394 276.517L289.49 275.46C295.593 274.88 304.854 274.145 310.071 273.827L319.555 273.251L327.846 273.802C336.509 274.377 345.267 275.727 349.332 277.112C353.736 278.614 354.539 281.732 351.968 287.339L350.724 290.05L348.209 291.322C344.953 292.969 340.74 293.782 328.944 295.043C307.001 297.387 297.424 299.148 285.839 302.965C272.831 307.252 260.36 314.209 250.653 322.594C244.464 327.941 245.213 328.584 254.681 326.052C271.487 321.556 284.729 319.741 313.902 317.935C320.683 317.516 327.396 317.037 328.82 316.872C330.245 316.707 331.409 316.751 331.409 316.971C331.409 317.19 330.82 317.984 330.098 318.736L328.787 320.102L329.703 320.452C331.006 320.952 343.737 319.826 352.794 318.411C366.527 316.265 369.132 315.222 371.47 310.934C372.906 308.302 376.049 296.813 377.841 287.647L378.947 281.987L378.973 275.013L379 268.039L377.978 266.646C374.916 262.47 364.919 258.507 351.383 256.101L345.465 255.05L334.122 254.909C327.883 254.832 322.002 254.856 321.053 254.964ZM360.999 268.167C360.999 268.272 361.976 268.93 363.17 269.628C365.859 271.2 369.359 275.097 369.725 276.927C370.131 278.952 370.863 278.587 370.863 276.359C370.863 273.746 370.174 272.114 368.65 271.118C367.355 270.271 360.999 267.82 360.999 268.167ZM148.444 270.956C146.681 271.182 143.604 271.728 141.605 272.171L137.972 272.974L136.18 274.617L134.389 276.259L134.476 279.861C134.572 283.821 135.973 291.298 137.942 298.362L139.215 302.926L140.86 304.367C141.765 305.16 143.33 305.963 144.337 306.152C146.252 306.51 146.561 306.469 162.5 303.703C185.258 299.754 200.932 299.512 228.977 302.676C234.889 303.343 241.727 303.889 244.173 303.889H248.621L253.644 301.993C262.166 298.777 271.777 294.414 271.589 293.847C271.484 293.531 269.174 293.152 266.025 292.933C255.809 292.224 249.65 290.949 227.598 284.978C217.139 282.146 204.827 279.625 194.556 278.213L186.665 277.128L170.02 277.118L153.376 277.109V276.569C153.376 276.272 154.389 274.99 155.626 273.72C156.863 272.449 157.738 271.187 157.569 270.915C157.216 270.344 153.077 270.362 148.444 270.956ZM148.564 319.655C147.951 319.901 147.192 320.668 146.876 321.36L146.301 322.618L147.452 325.435C149.443 330.31 154.233 339.589 155.589 341.198C156.305 342.047 157.71 342.969 158.709 343.246C164.511 344.854 176.928 342.49 197.021 335.951C207.327 332.598 228.831 324.207 228.831 323.539C228.831 323.269 222.156 323.082 212.433 323.08C188.479 323.076 163.387 321.629 152.939 319.649C149.879 319.069 150.024 319.069 148.564 319.655ZM348.917 329.743C328.77 334.675 314.627 337.427 299.847 339.292C284.894 341.178 278.489 341.461 249.79 341.505L221.68 341.549L215.515 343.16C206.09 345.623 177.31 353.502 172.763 354.863L168.726 356.073L167.708 357.363C165.649 359.977 166.122 361.061 174.163 372.143C182.064 383.033 184.033 384.538 192.829 386.418L197.021 387.313H207.131H217.241L222.419 386.403C231.263 384.848 241.329 382.283 256.581 377.699C264.656 375.272 271.369 373.286 271.499 373.286C272.073 373.286 271.666 371.888 271.02 371.641C270.627 371.49 267.464 371.106 263.992 370.787C256.959 370.141 245.977 370.417 233.516 371.554C229.176 371.949 221.843 372.28 217.221 372.287L208.818 372.302L205.879 371.551C202.622 370.719 199.09 368.544 198.833 367.212C198.568 365.839 199.613 364.988 204.687 362.447C210.585 359.493 218.113 356.848 223.78 355.737C230.003 354.518 240.008 354.706 252.996 356.287C258.828 356.997 267.926 358.049 273.216 358.624L282.832 359.67L299.354 359.711C316.655 359.753 319.865 359.522 333.629 357.241C343.89 355.54 349.339 354.206 351.241 352.928C353.187 351.622 355.779 347.472 360.767 337.68L364.489 330.375L364.174 329.313C363.747 327.875 362.549 327.014 361.029 327.054C360.334 327.072 354.884 328.283 348.917 329.743ZM325.245 343.814C320.905 344.603 316.688 345.443 315.875 345.682L314.395 346.116L315.973 346.166C319.108 346.266 328.978 344.706 332.496 343.553L336.094 342.376L334.615 342.378C333.801 342.379 329.585 343.025 325.245 343.814ZM330.423 369.34C305.767 374.1 289.248 378.121 274.942 382.847C265.521 385.96 251.821 391.193 250.63 392.135L249.99 392.64L250.579 393.004C250.904 393.204 253.633 393.51 256.644 393.684C270.933 394.511 278.679 395.026 287.764 395.75C298.521 396.608 315.937 396.456 319.138 395.477C323.116 394.261 325.675 391.625 335.411 378.72C339.144 373.77 340.78 371.199 340.78 370.277V368.953L339.227 368.413C338.372 368.115 337.651 367.892 337.624 367.916C337.596 367.94 334.356 368.581 330.423 369.34ZM311.522 380.162C302.036 382.111 301.738 382.581 310.592 381.631C315.711 381.083 320.319 379.98 320.81 379.186C321.295 378.403 318.816 378.664 311.522 380.162ZM197.871 398.661C196.48 399.633 196.473 401.304 197.854 403.12C201.493 407.905 210.479 417.016 212.649 418.121C213.678 418.645 216.569 419.287 219.307 419.599C224.71 420.215 234.552 419.834 235.597 418.968L236.267 418.415L234.983 417.077L233.7 415.741L235.087 415.438C235.85 415.271 239.804 414.993 243.872 414.818C251.376 414.496 257.91 414.957 266.311 416.401C271.651 417.318 272.229 417.504 272.229 418.312C272.229 418.971 268.826 421.615 264.092 424.636C262.736 425.501 261.626 426.538 261.626 426.941V427.672L270.996 427.824C276.15 427.907 282.808 427.731 285.791 427.434L291.216 426.892L294.422 425.405L297.627 423.919L304.896 416.444C308.893 412.333 312.371 408.378 312.624 407.656L313.083 406.343L312.122 405.476L311.162 404.608L307.847 404.677C306.024 404.715 300.981 404.976 296.641 405.256C286.705 405.899 277.922 405.9 268.777 405.26C255.464 404.328 221.358 400.731 208.341 398.886C199.999 397.703 199.264 397.687 197.871 398.661ZM235.735 428.196C228.313 429.38 226.544 429.878 225.385 431.11L224.271 432.293L224.61 433.64C225.266 436.246 238.261 448.345 246.338 453.869L249.79 456.23L250.037 472.22L250.283 488.21L251.383 489.749C251.988 490.595 253.297 491.673 254.291 492.144L256.098 493L258.288 492.7C260.994 492.33 262.982 490.966 264.031 488.761L264.832 487.077V471.859V456.642L269.086 453.757C273.721 450.616 284.404 440.691 285.091 438.89C285.698 437.295 285.202 436.411 283.358 435.804C281.164 435.081 267.813 434.948 266.595 435.637L265.647 436.174L267.043 437.465C267.811 438.175 268.323 438.871 268.182 439.011C268.041 439.152 265.399 439.4 262.31 439.562L256.695 439.857L252.902 438.381C250.816 437.57 248.098 436.314 246.861 435.59L244.612 434.275V433.032C244.612 432.349 245.167 431.064 245.845 430.177C246.523 429.289 247.078 428.307 247.078 427.995C247.078 427.227 241.145 427.331 235.735 428.196Z" fill="#E41B17"/>
</svg>
